<svg preserveAspectRatio="xMidYMid meet" width="100%" height="100%" overflow="visible" style="display: block;" viewBox="0 0 6325.86 4202.18" fill="none" xmlns="http://www.w3.org/2000/svg">
<g id="top layer" style="mix-blend-mode:hard-light" opacity="0.5">
<path id="work polygon background" d="M1002.49 1586.6L250.995 1034.22L1105.11 659.599L1002.49 1586.6Z" stroke="var(--stroke-0, #F4A69E)" stroke-width="3"/>
<path id="work polygon background_2" d="M651.193 3541.24L149.463 3172.45L719.709 2922.33L651.193 3541.24Z" stroke="var(--stroke-0, #F4A69E)" stroke-width="3"/>
<path id="work polygon background_3" d="M4021.79 3032.37L3520.07 2663.58L4090.31 2413.46L4021.79 3032.37Z" stroke="var(--stroke-0, #F4A69E)" stroke-width="3"/>
<path id="work polygon background_4" d="M4207.42 1462.46L3491.2 1868.7L3497.5 1045.32L4207.42 1462.46Z" stroke="var(--stroke-0, #F4A69E)" stroke-width="3"/>
<path id="work polygon background_5" d="M2146.65 1636.33L1605.02 1943.54L1609.79 1320.87L2146.65 1636.33Z" stroke="var(--stroke-0, #F4A69E)" stroke-width="3"/>
<path id="work polygon background_6" d="M2860.75 3094.38L1872.27 2574.57L2816.69 1978.42L2860.75 3094.38Z" stroke="var(--stroke-0, #F4A69E)" stroke-width="3"/>
<path id="work polygon background_7" d="M5608.41 1419.31L4765.09 1847.17L4816.21 902.896L5608.41 1419.31Z" stroke="var(--stroke-0, #F4A69E)" stroke-width="3"/>
<path id="work polygon background_8" d="M5847.3 3853.98L4775.9 3401.62L5703.35 2699.94L5847.3 3853.98Z" stroke="var(--stroke-0, #F4A69E)" stroke-width="3"/>
<circle id="rest polygon background" cx="913.419" cy="1996.62" r="304.324" stroke="var(--stroke-0, #F2D297)" stroke-width="3"/>
<circle id="rest polygon background_2" cx="5386.71" cy="2073.93" r="227.011" stroke="var(--stroke-0, #F2D297)" stroke-width="3"/>
<circle id="rest polygon background_3" cx="3003.93" cy="2356.26" r="227.011" stroke="var(--stroke-0, #F2D297)" stroke-width="3"/>
<circle id="rest polygon background_4" cx="3765.59" cy="2058.83" r="322.75" stroke="var(--stroke-0, #F2D297)" stroke-width="3"/>
<circle id="rest polygon background_5" cx="4384.18" cy="1122.61" r="304.324" stroke="var(--stroke-0, #F2D297)" stroke-width="3"/>
<circle id="rest polygon background_6" cx="1767.93" cy="3152.7" r="571.501" stroke="var(--stroke-0, #F2D297)" stroke-width="3"/>
<circle id="rest polygon background_7" cx="2887.62" cy="816.79" r="815.29" stroke="var(--stroke-0, #F2D297)" stroke-width="3"/>
<circle id="rest polygon background_8" cx="4663.95" cy="3385.39" r="815.29" stroke="var(--stroke-0, #F2D297)" stroke-width="3"/>
<rect id="Rectangle 19" opacity="0.7" x="2604.46" y="3000.53" width="864.119" height="864.119" transform="rotate(-28.9889 2604.46 3000.53)" stroke="var(--stroke-0, #9DC4E0)" stroke-width="3"/>
<rect id="Rectangle 20" opacity="0.7" x="1190.36" y="588.669" width="716.323" height="716.323" transform="rotate(24.1811 1190.36 588.669)" stroke="var(--stroke-0, #9DC4E0)" stroke-width="3"/>
<rect id="Rectangle 21" opacity="0.7" x="609.612" y="2362.55" width="600.698" height="600.698" transform="rotate(-26.9984 609.612 2362.55)" stroke="var(--stroke-0, #9DC4E0)" stroke-width="3"/>
<rect id="Rectangle 22" opacity="0.7" x="1936.54" y="1996.26" width="600.698" height="600.698" transform="rotate(-54.9298 1936.54 1996.26)" stroke="var(--stroke-0, #9DC4E0)" stroke-width="3"/>
<rect id="Rectangle 23" opacity="0.7" x="4062.49" y="2160.71" width="600.698" height="600.698" transform="rotate(-38.9791 4062.49 2160.71)" stroke="var(--stroke-0, #9DC4E0)" stroke-width="3"/>
<rect id="Rectangle 24" opacity="0.7" x="5039.86" y="583.445" width="761.952" height="761.952" transform="rotate(-5.98586 5039.86 583.445)" stroke="var(--stroke-0, #9DC4E0)" stroke-width="3"/>
</g>
</svg>
